<?xml version="1.0" standalone="no"?>
<!DOCTYPE svg PUBLIC "-//W3C//DTD SVG 20010904//EN"
 "http://www.w3.org/TR/2001/REC-SVG-20010904/DTD/svg10.dtd">
<svg version="1.0" xmlns="http://www.w3.org/2000/svg"
 width="1351.000000pt" height="1351.000000pt" viewBox="0 0 1351.000000 1351.000000"
 preserveAspectRatio="xMidYMid meet">
<metadata>
Created by potrace 1.11, written by Peter Selinger 2001-2013
</metadata>
<g transform="translate(0.000000,1351.000000) scale(0.100000,-0.100000)"
fill="#000000" stroke="none">
<path d="M8946 9383 c-3 -16 -8 -53 -11 -83 -8 -69 -15 -128 -20 -160 -2 -14
-6 -52 -10 -86 -3 -33 -7 -71 -10 -85 -3 -23 -10 -72 -20 -161 -3 -24 -11 -97
-20 -163 -8 -66 -17 -142 -20 -170 -3 -27 -8 -67 -10 -87 -8 -58 -13 -102 -30
-243 -15 -126 -21 -173 -30 -245 -2 -19 -7 -60 -10 -90 -4 -30 -10 -84 -15
-120 -5 -36 -12 -90 -15 -120 -8 -72 -55 -446 -60 -468 -11 -55 -31 -123 -47
-161 -10 -24 -15 -47 -11 -51 4 -4 60 -29 123 -55 63 -26 133 -55 155 -65 22
-9 81 -34 130 -55 50 -21 104 -43 120 -50 17 -7 143 -60 281 -118 l251 -106
55 53 c114 107 262 163 408 153 461 -32 680 -558 367 -881 -253 -260 -665
-217 -871 92 -47 72 -103 200 -112 260 -3 20 -9 52 -12 70 l-7 32 -615 -609
c-338 -335 -613 -611 -610 -613 3 -2 43 -26 90 -52 47 -27 97 -58 112 -70 15
-12 46 -35 70 -53 24 -17 79 -67 124 -110 240 -233 447 -373 699 -473 135 -54
333 -103 475 -118 136 -14 478 -7 579 13 10 2 36 6 57 9 21 4 68 14 104 22 36
9 74 17 84 20 92 19 351 121 477 187 257 136 501 333 665 538 32 41 61 76 64
79 14 14 102 154 138 220 90 165 177 431 199 610 9 81 10 364 1 445 -4 33 -14
96 -23 140 -10 44 -19 90 -21 103 -21 109 -129 366 -214 507 -279 462 -690
749 -1188 831 -20 3 -107 7 -192 9 -143 3 -234 -7 -292 -30 -17 -7 -18 3 -18
126 l0 134 617 -1 c340 0 638 -4 662 -8 57 -10 146 -43 193 -73 21 -12 39 -23
41 -23 2 0 4 322 4 715 l0 715 -1413 0 -1412 0 -6 -27z"/>
<path d="M2250 8619 c-308 -53 -501 -224 -600 -532 -45 -140 -60 -322 -39
-462 14 -91 56 -228 94 -312 19 -41 35 -76 35 -78 0 -9 114 -192 157 -253 118
-166 329 -392 565 -604 165 -149 178 -248 39 -292 -25 -8 -66 -17 -91 -20 -25
-3 -541 -5 -1147 -5 l-1103 -1 0 -548 0 -547 1623 1 c1758 1 1641 -2 1814 53
313 100 503 297 562 583 23 116 22 327 -4 433 -9 39 -18 77 -20 85 -12 51 -61
175 -103 258 -135 268 -334 509 -676 818 -154 138 -198 210 -166 269 17 31 90
62 168 71 34 3 256 7 492 8 373 1 430 -1 434 -14 2 -8 23 -76 46 -150 23 -74
47 -155 54 -180 7 -25 37 -121 65 -215 60 -196 228 -743 273 -890 16 -55 40
-134 53 -175 13 -41 49 -158 80 -260 31 -102 61 -198 66 -215 5 -16 26 -88 48
-160 84 -279 94 -310 102 -315 4 -3 274 -5 600 -5 l592 0 23 90 c25 97 254
1013 257 1030 18 85 104 415 109 415 7 0 15 -22 23 -57 3 -16 22 -81 126 -428
17 -55 34 -111 38 -125 5 -14 14 -45 21 -70 7 -25 18 -63 26 -85 7 -22 20 -65
29 -95 9 -30 57 -194 108 -365 l93 -310 472 0 472 0 169 170 c164 165 180 186
196 261 2 10 22 93 45 184 22 91 43 176 46 188 2 13 12 49 20 80 8 32 17 67
20 80 2 12 18 75 35 140 17 64 32 124 34 132 3 16 113 455 120 480 3 10 -9 21
-33 31 -227 98 -267 117 -265 130 1 8 18 51 38 96 20 45 38 90 40 100 2 10 10
50 19 89 8 39 18 97 21 130 3 32 8 70 10 84 2 14 7 48 10 75 3 28 8 66 10 85
3 19 7 58 10 85 3 28 8 66 11 85 2 19 7 58 9 85 3 28 7 61 10 75 2 14 7 50 10
80 6 52 21 178 30 245 2 17 6 57 10 90 4 33 8 71 11 84 2 14 6 51 9 84 4 32 8
66 10 75 1 9 6 47 10 84 l7 67 -347 -2 -348 -2 -23 -110 c-33 -152 -40 -186
-64 -295 -11 -52 -23 -108 -26 -125 -3 -16 -11 -55 -19 -85 -7 -30 -16 -68
-18 -85 -3 -16 -12 -60 -21 -98 -9 -37 -18 -82 -21 -100 -3 -17 -8 -39 -10
-47 -2 -8 -6 -26 -9 -40 -2 -14 -10 -47 -16 -75 -6 -27 -13 -57 -15 -65 -2 -8
-21 -103 -44 -210 -23 -107 -44 -206 -47 -220 -7 -28 -17 0 -169 475 -48 149
-93 288 -100 310 -8 22 -53 162 -101 310 -47 149 -100 313 -118 366 l-31 97
-549 -2 -550 -1 -18 -65 c-11 -36 -26 -87 -34 -115 -8 -27 -30 -108 -50 -180
-19 -71 -46 -170 -60 -220 -14 -49 -34 -124 -45 -165 -11 -41 -36 -131 -55
-200 -20 -69 -56 -199 -80 -290 -55 -199 -93 -333 -97 -337 -2 -1 -16 37 -31
85 -15 48 -52 166 -83 262 -31 96 -57 180 -59 185 -1 6 -31 102 -67 215 -36
113 -110 345 -164 515 l-99 310 -1394 1 c-1306 1 -1402 0 -1500 -17z"/>
<path d="M11896 7308 c4 -7 22 -31 40 -53 85 -107 200 -314 264 -473 42 -107
95 -283 105 -350 3 -21 8 -49 10 -62 6 -27 15 -95 21 -150 5 -48 5 -288 0
-325 -2 -16 -7 -57 -11 -90 -27 -247 -147 -574 -284 -777 -17 -25 -31 -50 -31
-55 0 -5 289 -8 665 -8 l665 0 0 352 c0 243 -3 353 -11 353 -6 0 -18 -4 -27
-9 -54 -29 -185 -44 -404 -47 l-228 -3 0 139 0 138 143 -3 c126 -3 233 -19
267 -40 6 -3 11 0 11 7 4 38 6 586 2 600 -4 16 -7 16 -41 3 -53 -21 -150 -32
-274 -33 l-108 0 0 125 0 125 243 -5 c202 -4 254 -8 317 -25 41 -11 83 -23 93
-27 16 -7 17 14 17 349 l0 356 -726 0 c-577 0 -724 -3 -718 -12z"/>
</g>
</svg>
